<?xml version="1.0" standalone="no"?><!DOCTYPE svg PUBLIC "-//W3C//DTD SVG 1.1//EN" "http://www.w3.org/Graphics/SVG/1.1/DTD/svg11.dtd"><svg xmlns:xlink="http://www.w3.org/1999/xlink" version="1.1" class="highcharts-root" style="font-family:&quot;Lucida Grande&quot;, &quot;Lucida Sans Unicode&quot;, Arial, Helvetica, sans-serif;font-size:12px;" xmlns="http://www.w3.org/2000/svg" width="600" height="400" viewBox="0 0 600 400"><desc>Created with Highcharts 6.0.7</desc><defs><clipPath id="highcharts-tfek0zi-6"><rect x="0" y="0" width="466" height="375" fill="none"></rect></clipPath><clipPath id="highcharts-tfek0zi-8"><circle cx="233" cy="187.5" r="150"></circle></clipPath></defs><rect fill="#ffffff" class="highcharts-background" x="0" y="0" width="600" height="400" rx="0" ry="0"></rect><rect fill="none" class="highcharts-plot-background" x="10" y="10" width="466" height="375"></rect><g class="highcharts-pane-group"></g><g class="highcharts-grid highcharts-xaxis-grid "><path fill="none" stroke="#e6e6e6" stroke-width="1" class="highcharts-grid-line" d="M 243 197.5 L 243 47.5" opacity="1"></path><path fill="none" stroke="#e6e6e6" stroke-width="1" class="highcharts-grid-line" d="M 243 197.5 L 385.658477444273 151.1474508437579" opacity="1"></path><path fill="none" stroke="#e6e6e6" stroke-width="1" class="highcharts-grid-line" d="M 243 197.5 L 331.167787843871 318.8525491562421" opacity="1"></path><path fill="none" stroke="#e6e6e6" stroke-width="1" class="highcharts-grid-line" d="M 243 197.5 L 154.83221215612906 318.8525491562421" opacity="1"></path><path fill="none" stroke="#e6e6e6" stroke-width="1" class="highcharts-grid-line" d="M 243 197.5 L 100.34152255572695 151.1474508437579" opacity="1"></path><path fill="none" stroke="#e6e6e6" stroke-width="1" class="highcharts-grid-line" d="M 243 197.5 L 242.99999999999997 47.5" opacity="1"></path></g><g class="highcharts-grid highcharts-yaxis-grid "><path fill="none" stroke="#e6e6e6" stroke-width="1" class="highcharts-grid-line" d="M 243 197.5 L 243 197.5 L 243 197.5 L 243 197.5 L 243 197.5 L 243 197.5 L 243 197.5" opacity="1"></path><path fill="none" stroke="#e6e6e6" stroke-width="1" class="highcharts-grid-line" d="M 243 122.5 L 243 122.5 L 171.67076127786348 174.32372542187895 L 198.91610607806453 258.1762745781211 L 287.0838939219355 258.1762745781211 L 314.3292387221365 174.32372542187895 L 243 122.5" opacity="1"></path><path fill="none" stroke="#e6e6e6" stroke-width="1" class="highcharts-grid-line" d="M 243 47.5 L 242.99999999999997 47.5 L 100.34152255572695 151.1474508437579 L 154.83221215612906 318.8525491562421 L 331.167787843871 318.8525491562421 L 385.658477444273 151.1474508437579 L 243 47.5" opacity="1"></path></g><rect fill="none" class="highcharts-plot-border" x="10" y="10" width="466" height="375"></rect><g class="highcharts-axis highcharts-xaxis "><path fill="none" class="highcharts-axis-line" d="M 243 47.5 A 150 150 0 1 1 242.85000002499993 47.50007499999376 M 243 197.5 A 0 0 0 1 0 243 197.5 "></path></g><g class="highcharts-axis highcharts-yaxis "><path fill="none" class="highcharts-axis-line" d="M 243 197.5 L 243 47.5"></path></g><g class="highcharts-series-group"><g class="highcharts-series highcharts-series-0 highcharts-line-series highcharts-color-0 " transform="translate(10,10) scale(1 1)" clip-path="url(#highcharts-tfek0zi-8)"><path fill="none" d="M 233 37.5 L 375.6584774442722 141.14745084375542 L 321.1677878438752 308.85254915623904 L 153.64899094051086 296.7172942406141 L 90.3415225557284 141.14745084375346 L 233 37.5" class="highcharts-graph" stroke="#7cb5ec" stroke-width="2" stroke-linejoin="round" stroke-linecap="round"></path></g><g class="highcharts-markers highcharts-series-0 highcharts-line-series highcharts-color-0 " transform="translate(10,10) scale(1 1)" clip-path="none"><path fill="#7cb5ec" d="M 237 38 A 4 4 0 1 1 236.99999800000018 37.99600000066666 Z" class="highcharts-point highcharts-color-0"></path><path fill="#7cb5ec" d="M 379 141 A 4 4 0 1 1 378.9999980000002 140.99600000066667 Z" class="highcharts-point highcharts-color-0"></path><path fill="#7cb5ec" d="M 325 309 A 4 4 0 1 1 324.9999980000002 308.99600000066664 Z" class="highcharts-point highcharts-color-0"></path><path fill="#7cb5ec" d="M 157 297 A 4 4 0 1 1 156.99999800000018 296.99600000066664 Z" class="highcharts-point highcharts-color-0"></path><path fill="#7cb5ec" d="M 94 141 A 4 4 0 1 1 93.99999800000016 140.99600000066667 Z" class="highcharts-point highcharts-color-0"></path></g></g><text x="220" text-anchor="middle" class="highcharts-title" style="color:#333333;font-size:18px;fill:#333333;" y="24"></text><text x="300" text-anchor="middle" class="highcharts-subtitle" style="color:#666666;fill:#666666;" y="24"></text><g class="highcharts-legend" transform="translate(488,80)"><rect fill="none" class="highcharts-legend-box" rx="0" ry="0" x="0" y="0" width="102" height="25" visibility="visible"></rect><g><g><g class="highcharts-legend-item highcharts-line-series highcharts-color-0 highcharts-series-0" transform="translate(8,3)"><path fill="none" d="M 0 11 L 16 11" class="highcharts-graph" stroke="#7cb5ec" stroke-width="2"></path><path fill="#7cb5ec" d="M 12 11 A 4 4 0 1 1 11.999998000000167 10.996000000666664 Z" class="highcharts-point"></path><text x="21" style="color:#333333;font-size:12px;font-weight:bold;cursor:pointer;fill:#333333;" text-anchor="start" y="15"><tspan>Jean Prat</tspan></text></g></g></g></g><g class="highcharts-axis-labels highcharts-xaxis-labels "><text x="243" style="color:#666666;cursor:default;font-size:11px;fill:#666666;" transform="translate(0,0)" text-anchor="middle" y="37" opacity="1">Autonomie</text><text x="399.9243251887003" style="color:#666666;cursor:default;font-size:11px;fill:#666666;" transform="translate(0,0)" text-anchor="start" y="151.01219592813368" opacity="1">Efficacité</text><text x="339.98456662825805" style="color:#666666;cursor:default;font-size:11px;fill:#666666;" transform="translate(0,0)" text-anchor="start" y="335.4878040718663" opacity="1"><tspan>Machine de combat</tspan></text><text x="146.01543337174195" style="color:#666666;cursor:default;font-size:11px;fill:#666666;" transform="translate(0,0)" text-anchor="end" y="335.4878040718663" opacity="1">Paranoïa</text><text x="86.07567481129965" style="color:#666666;cursor:default;font-size:11px;fill:#666666;" transform="translate(0,0)" text-anchor="end" y="151.0121959281337" opacity="1">Convivialité</text><text x="0" style="color:#666666;cursor:default;font-size:11px;fill:#666666;" transform="translate(0,0)" text-anchor="middle" y="-9999">5</text></g><g class="highcharts-axis-labels highcharts-yaxis-labels "><text x="240" style="color:#666666;cursor:default;font-size:11px;fill:#666666;" text-anchor="end" transform="translate(0,0)" y="195.5" opacity="1">0</text><text x="240" style="color:#666666;cursor:default;font-size:11px;fill:#666666;" text-anchor="end" transform="translate(0,0)" y="120.5" opacity="1">5</text><text x="0" style="color:#666666;cursor:default;font-size:11px;fill:#666666;" text-anchor="end" transform="translate(0,0)" y="-9999">10</text></g><text x="590" class="highcharts-credits" text-anchor="end" style="cursor:pointer;color:#999999;font-size:9px;fill:#999999;" y="395"></text></svg>
